<?xml version="1.0" encoding="iso-8859-1"?>
<!-- Generator: Adobe Illustrator 19.0.0, SVG Export Plug-In . SVG Version: 6.00 Build 0)  -->
<svg xmlns="http://www.w3.org/2000/svg" xmlns:xlink="http://www.w3.org/1999/xlink" version="1.1" id="Layer_1" x="0px" y="0px" viewBox="0 0 492.308 492.308" style="enable-background:new 0 0 492.308 492.308;" xml:space="preserve" width="512px" height="512px">
<g>
	<g>
		<path d="M420.072,0H72.236C50.514,0,32.851,17.668,32.851,39.385v413.538c0,21.716,17.663,39.385,39.385,39.385h347.837    c21.721,0,39.385-17.668,39.385-39.385V39.385C459.457,17.668,441.793,0,420.072,0z M439.764,452.923    c0,10.861-8.837,19.692-19.692,19.692H72.236c-10.856,0-19.692-8.832-19.692-19.692V39.385c0-10.861,8.837-19.692,19.692-19.692    h347.837c10.856,0,19.692,8.832,19.692,19.692V452.923z" fill="#535A61"/>
	</g>
</g>
<g>
	<g>
		<path d="M246.149,52.284c-74.423,0-134.971,60.548-134.971,134.976s60.548,134.976,134.971,134.976    c74.433,0,134.981-60.548,134.981-134.976S320.582,52.284,246.149,52.284z M246.149,302.543    c-63.567,0-115.279-51.716-115.279-115.284S182.582,71.976,246.149,71.976s115.289,51.716,115.289,115.284    S309.716,302.543,246.149,302.543z" fill="#535A61"/>
	</g>
</g>
<g>
	<g>
		<path d="M246.159,148.317c-21.481,0-38.952,17.471-38.952,38.942s17.471,38.942,38.952,38.942    c21.471,0,38.942-17.471,38.942-38.942S267.63,148.317,246.159,148.317z M246.159,206.51c-10.615,0-19.26-8.635-19.26-19.25    c0-10.615,8.644-19.25,19.26-19.25c10.615,0,19.25,8.635,19.25,19.25C265.409,197.875,256.774,206.51,246.159,206.51z" fill="#535A61"/>
	</g>
</g>
<g>
	<g>
		<rect x="174.326" y="400.798" width="143.655" height="19.692" fill="#535A61"/>
	</g>
</g>
<g>
</g>
<g>
</g>
<g>
</g>
<g>
</g>
<g>
</g>
<g>
</g>
<g>
</g>
<g>
</g>
<g>
</g>
<g>
</g>
<g>
</g>
<g>
</g>
<g>
</g>
<g>
</g>
<g>
</g>
</svg>
