<?xml version="1.0" encoding="iso-8859-1"?>
<!-- Generator: Adobe Illustrator 19.0.0, SVG Export Plug-In . SVG Version: 6.00 Build 0)  -->
<svg xmlns="http://www.w3.org/2000/svg" xmlns:xlink="http://www.w3.org/1999/xlink" version="1.1" id="Layer_1" x="0px" y="0px" viewBox="0 0 512 512" style="enable-background:new 0 0 512 512;" xml:space="preserve" width="512px" height="512px">
<g>
	<g>
		<path d="M126.413,228.951c-23.638,0-42.869,19.23-42.869,42.867c0,23.638,19.231,42.869,42.869,42.869    c23.638,0,42.869-19.231,42.869-42.869C169.283,248.182,150.052,228.951,126.413,228.951z M126.413,293.79    c-12.116,0-21.971-9.857-21.971-21.971c0-12.115,9.857-21.969,21.971-21.969c12.116,0,21.971,9.855,21.971,21.969    C148.385,283.933,138.528,293.79,126.413,293.79z" fill="#535A61"/>
	</g>
</g>
<g>
	<g>
		<path d="M126.413,144.747c-19.602,0-35.549,15.946-35.549,35.547c0,19.602,15.947,35.548,35.549,35.548    c19.602,0,35.548-15.947,35.548-35.548C161.962,160.693,146.015,144.747,126.413,144.747z M126.413,194.945    c-8.078,0-14.651-6.572-14.651-14.651c0-8.077,6.572-14.649,14.651-14.649c8.079,0,14.65,6.571,14.65,14.649    C141.064,188.372,134.492,194.945,126.413,194.945z" fill="#535A61"/>
	</g>
</g>
<g>
	<g>
		<path d="M126.413,328.982c-28.829,0-52.281,23.452-52.281,52.279c0,28.829,23.453,52.283,52.281,52.283    c28.829,0,52.282-23.454,52.282-52.283C178.696,352.434,155.242,328.982,126.413,328.982z M126.413,412.646    c-17.306,0-31.384-14.08-31.384-31.385c0-17.305,14.079-31.381,31.384-31.381c17.306,0,31.385,14.078,31.385,31.381    C157.798,398.566,143.718,412.646,126.413,412.646z" fill="#535A61"/>
	</g>
</g>
<g>
	<g>
		<path d="M167.324,451.36h-4.681c-5.77,0-10.449,4.679-10.449,10.449c0,5.771,4.679,10.449,10.449,10.449h4.681    c5.77,0,10.449-4.678,10.449-10.449C177.773,456.038,173.094,451.36,167.324,451.36z" fill="#535A61"/>
	</g>
</g>
<g>
	<g>
		<path d="M128.807,451.36H85.246c-5.77,0-10.449,4.679-10.449,10.449c0,5.771,4.679,10.449,10.449,10.449h43.561    c5.77,0,10.449-4.678,10.449-10.449C139.257,456.038,134.578,451.36,128.807,451.36z" fill="#535A61"/>
	</g>
</g>
<g>
	<g>
		<path d="M222.057,4.948C213.307,1.665,204.089,0,194.66,0c-0.001,0-0.001,0-0.002,0c-20.937,0-40.686,8.145-55.609,22.931    c-14.979,14.844-23.227,34.544-23.227,55.472v1.742h-0.574c-3.795,0-7.291,2.057-9.133,5.375l-15.369,27.663H63.657    c-17.295,0-31.366,14.071-31.366,31.366v336.087c0,17.294,14.071,31.365,31.366,31.365h125.255    c17.295,0,31.366-14.071,31.366-31.366V144.547c0-17.295-14.071-31.366-31.366-31.366h-27.114l-15.369-27.663    c-1.843-3.318-5.338-5.375-9.133-5.375h-0.576v-1.742c0-15.31,6.051-29.739,17.04-40.628c10.983-10.883,25.508-16.876,40.9-16.876    c6.913,0,13.66,1.216,20.053,3.615c5.409,2.03,11.427-0.709,13.454-6.112C230.195,12.999,227.459,6.976,222.057,4.948z     M155.65,134.079h33.262c5.771,0,10.468,4.697,10.468,10.468v336.087c0,5.771-4.696,10.468-10.468,10.468H63.657    c-5.772,0-10.468-4.696-10.468-10.468V144.547c0-5.771,4.696-10.468,10.468-10.468h33.236H155.65z M137.891,113.181h-23.239    l6.744-12.139h9.751L137.891,113.181z" fill="#535A61"/>
	</g>
</g>
<g>
	<g>
		<path d="M290.699,330.217c-11.576-10.969-17.952-25.843-17.952-41.884v-43.564v-70.526v-95.84    c0-21.518-8.921-42.312-24.477-57.054c-4.191-3.969-10.802-3.789-14.773,0.397c-3.97,4.189-3.792,10.803,0.397,14.773    c11.577,10.971,17.954,25.846,17.954,41.884v95.84v70.526v43.564c0,21.52,8.921,42.315,24.477,57.054    c2.021,1.915,4.605,2.864,7.185,2.864c2.769,0,5.533-1.094,7.587-3.262C295.067,340.8,294.888,334.186,290.699,330.217z" fill="#535A61"/>
	</g>
</g>
<g>
	<g>
		<path d="M469.26,54.779h-16.721V41.923c0-5.77-4.679-10.449-10.449-10.449h-44.051c-17.905,0-32.472,14.568-32.472,32.474v71.388    c0,5.77,4.679,10.449,10.449,10.449h44.051c5.77,0,10.449-4.679,10.449-10.449V96.423h11.574c5.77,0,10.449-4.679,10.449-10.449    V75.677h16.721c5.77,0,10.449-4.678,10.449-10.449C479.708,59.457,475.029,54.779,469.26,54.779z M431.641,75.525h-11.574    c-5.77,0-10.449,4.679-10.449,10.449v38.914h-23.153v-60.94c0-6.383,5.192-11.576,11.574-11.576h33.602V75.525z" fill="#535A61"/>
	</g>
</g>
<g>
	<g>
		<path d="M410.984,154.372h-25.253c-5.77,0-10.449,4.678-10.449,10.449c0,5.77,4.679,10.449,10.449,10.449h25.253    c5.77,0,10.449-4.679,10.449-10.449S416.755,154.372,410.984,154.372z" fill="#535A61"/>
	</g>
</g>
<g>
	<g>
		<path d="M410.984,185.651h-25.253c-5.77,0-10.449,4.679-10.449,10.449c0,5.771,4.679,10.449,10.449,10.449h2.142v81.785    c0,15.31-6.051,29.739-17.039,40.628c-10.984,10.884-25.509,16.877-40.9,16.877c-6.914,0-13.661-1.216-20.054-3.614    c-5.403-2.029-11.426,0.709-13.453,6.113c-2.027,5.403,0.709,11.427,6.113,13.453c8.748,3.283,17.964,4.947,27.395,4.947    c0.001,0,0.001,0,0.002,0c20.936,0,40.686-8.144,55.607-22.931c14.979-14.843,23.227-34.543,23.227-55.472v-81.785h2.213    c5.77,0,10.449-4.678,10.449-10.449C421.433,190.329,416.755,185.651,410.984,185.651z" fill="#535A61"/>
	</g>
</g>
<g>
</g>
<g>
</g>
<g>
</g>
<g>
</g>
<g>
</g>
<g>
</g>
<g>
</g>
<g>
</g>
<g>
</g>
<g>
</g>
<g>
</g>
<g>
</g>
<g>
</g>
<g>
</g>
<g>
</g>
</svg>
