<?xml version="1.0" encoding="iso-8859-1"?>
<!-- Generator: Adobe Illustrator 19.0.0, SVG Export Plug-In . SVG Version: 6.00 Build 0)  -->
<svg xmlns="http://www.w3.org/2000/svg" xmlns:xlink="http://www.w3.org/1999/xlink" version="1.1" id="Layer_1" x="0px" y="0px" viewBox="0 0 511.997 511.997" style="enable-background:new 0 0 511.997 511.997;" xml:space="preserve" width="512px" height="512px">
<g>
	<g>
		<g>
			<path d="M480,149.33H181.338c-5.891,0-10.671,4.781-10.671,10.672v222.561c-32.883-1.812-54.961-5.406-71.015-11.25     c-22.484-8.172-33.141-20.828-35.242-42.625c12.203-4.516,20.93-16.266,20.93-30.016V192.001c5.891,0,10.664-4.781,10.664-10.672     v-21.328c0-5.891-4.773-10.672-10.664-10.672v-10.664c0-5.891-4.781-10.664-10.672-10.664H64.003V79.572l70.945-60.804     c4.469-3.836,4.984-10.57,1.156-15.047c-3.836-4.468-10.57-4.984-15.047-1.156l-74.663,64c-2.359,2.031-3.727,4.984-3.727,8.102     v53.335H32.004c-5.891,0-10.664,4.773-10.664,10.664v160.006c0,14.031,9.086,25.984,21.68,30.281     c2.469,31.172,18.312,51.125,49.335,62.406c19.945,7.25,46.203,10.891,78.312,12.607v86.703c0,5.891,4.781,10.656,10.671,10.656     h10.664c0,5.891,4.773,10.672,10.664,10.672s10.672-4.781,10.672-10.672h234.663c0,5.891,4.781,10.672,10.656,10.672     c5.905,0,10.687-4.781,10.687-10.672H480c5.891,0,10.656-4.766,10.656-10.656V160.001C490.656,154.111,485.891,149.33,480,149.33     z M53.339,309.328c-5.882,0-10.671-4.781-10.671-10.656h21.335C64.003,304.547,59.222,309.328,53.339,309.328z M64.003,277.328     H42.668V149.33h21.335V277.328z M469.344,479.997H192.002V404.81c7.445,0.219,15.164,0.344,23.141,0.422     c4.375,12.469,16.25,21.438,30.195,21.438c17.641,0,32.008-14.359,32.008-31.998c0-17.656-14.367-32-32.008-32     c-13.867,0-25.703,8.859-30.132,21.234c-8.203-0.094-15.922-0.25-23.203-0.469v-84.766h277.341V479.997z M240.002,385.437     c1.578-0.906,3.391-1.438,5.336-1.438c5.883,0,10.664,4.781,10.664,10.672c0,5.875-4.781,10.654-10.664,10.654     c-1.945,0-3.758-0.531-5.336-1.438c3.188-1.842,5.336-5.279,5.336-9.217C245.338,390.719,243.189,387.281,240.002,385.437z      M469.344,277.329H192.002V170.666h277.342V277.329z" fill="#535A61"/>
			<path d="M320.001,384h117.344c5.875,0,10.656-4.781,10.656-10.672s-4.781-10.656-10.656-10.656H320.001     c-5.891,0-10.656,4.766-10.656,10.656S314.111,384,320.001,384z" fill="#535A61"/>
			<path d="M320.001,341.328h117.344c5.875,0,10.656-4.766,10.656-10.656S443.22,320,437.345,320H320.001     c-5.891,0-10.656,4.781-10.656,10.672S314.111,341.328,320.001,341.328z" fill="#535A61"/>
			<path d="M245.338,256c17.641,0,32.008-14.359,32.008-32c0-17.648-14.367-32-32.008-32c-17.648,0-32,14.352-32,32     C213.338,241.641,227.69,256,245.338,256z M245.338,213.329c5.883,0,10.664,4.789,10.664,10.672     c0,5.875-4.781,10.664-10.664,10.664s-10.672-4.789-10.672-10.664C234.666,218.118,239.455,213.329,245.338,213.329z" fill="#535A61"/>
			<path d="M330.657,256c17.656,0,32-14.359,32-32c0-17.648-14.344-32-32-32c-17.625,0-32,14.352-32,32     C298.657,241.641,313.032,256,330.657,256z M330.657,213.329c5.891,0,10.688,4.789,10.688,10.672     c0,5.875-4.797,10.664-10.688,10.664c-5.875,0-10.656-4.789-10.656-10.664C320.001,218.118,324.782,213.329,330.657,213.329z" fill="#535A61"/>
			<path d="M416.001,256c17.656,0,32-14.359,32-32c0-17.648-14.344-32-32-32c-17.641,0-32,14.352-32,32     C384.001,241.641,398.36,256,416.001,256z M416.001,213.329c5.875,0,10.656,4.789,10.656,10.672     c0,5.875-4.781,10.664-10.656,10.664s-10.656-4.789-10.656-10.664C405.345,218.118,410.126,213.329,416.001,213.329z" fill="#535A61"/>
			<path d="M320.001,447.997h10.656v10.672c0,5.891,4.781,10.656,10.688,10.656c5.875,0,10.656-4.766,10.656-10.656v-10.672h10.656     c5.906,0,10.688-4.781,10.688-10.672s-4.782-10.656-10.688-10.656h-10.656v-10.672c0-5.891-4.781-10.672-10.656-10.672     c-5.906,0-10.688,4.781-10.688,10.672v10.672h-10.656c-5.891,0-10.656,4.766-10.656,10.656S314.111,447.997,320.001,447.997z" fill="#535A61"/>
			<path d="M437.345,426.669h-42.688c-5.875,0-10.656,4.766-10.656,10.656s4.781,10.672,10.656,10.672h42.688     c5.875,0,10.656-4.781,10.656-10.672S443.22,426.669,437.345,426.669z" fill="#535A61"/>
		</g>
	</g>
</g>
<g>
</g>
<g>
</g>
<g>
</g>
<g>
</g>
<g>
</g>
<g>
</g>
<g>
</g>
<g>
</g>
<g>
</g>
<g>
</g>
<g>
</g>
<g>
</g>
<g>
</g>
<g>
</g>
<g>
</g>
</svg>
