<?xml version="1.0" encoding="utf-8"?>
<!-- Generator: Adobe Illustrator 19.0.0, SVG Export Plug-In . SVG Version: 6.00 Build 0)  -->
<svg version="1.1" id="Isolation_Mode" xmlns="http://www.w3.org/2000/svg" xmlns:xlink="http://www.w3.org/1999/xlink" x="0px"
	 y="0px" width="21.3px" height="32px" viewBox="5.3 0 21.3 32" style="enable-background:new 5.3 0 21.3 32;" xml:space="preserve"
	>
<style type="text/css">
	.st0{fill:#FFC500;}
</style>
<path class="st0" d="M16,1.1c5.3,0,9.6,4.3,9.6,9.6c0,1.7-0.4,3.3-1.3,4.8L16,29.9L7.7,15.5c-0.8-1.5-1.3-3.1-1.3-4.8
	C6.4,5.4,10.7,1.1,16,1.1L16,1.1z M16,14.4c2.1,0,3.7-1.7,3.7-3.7c0-2.1-1.7-3.7-3.7-3.7c-2.1,0-3.7,1.7-3.7,3.7
	C12.3,12.7,13.9,14.4,16,14.4z M16,0C10.1,0,5.3,4.8,5.3,10.7c0,1.9,0.5,3.8,1.4,5.3L16,32l9.2-16c0.9-1.6,1.4-3.4,1.4-5.3
	C26.7,4.8,21.9,0,16,0L16,0L16,0z M16,13.3c-1.5,0-2.7-1.2-2.7-2.7C13.3,9.2,14.5,8,16,8c1.5,0,2.7,1.2,2.7,2.7
	C18.7,12.1,17.5,13.3,16,13.3L16,13.3z"/>
</svg>
