<?xml version="1.0" encoding="utf-8"?>
<!-- Generator: Adobe Illustrator 19.0.0, SVG Export Plug-In . SVG Version: 6.00 Build 0)  -->
<svg version="1.1" id="Layer_1" xmlns="http://www.w3.org/2000/svg" xmlns:xlink="http://www.w3.org/1999/xlink" x="0px" y="0px"
	 width="32px" height="32px" viewBox="0 0 32 32" style="enable-background:new 0 0 32 32;" xml:space="preserve">
<style type="text/css">
	.st0{fill:#FFC500;}
</style>
<path class="st0" d="M20.9,32.3c-4.7,0-10-2.3-14.3-6.5C-0.2,18.9-2,9.4,2.3,3.7l1.6,1.2C0.2,9.8,2,18.3,8.1,24.3
	c6,6,14.4,7.7,19.2,3.9l1.3,1.6C26.4,31.4,23.7,32.3,20.9,32.3z"/>
<path class="st0" d="M30.3,27.4l-7.6-7.6l-1.4,1.4c-1.4,1.4-3.3,2.2-5.4,2.2c-2,0-3.9-0.8-5.4-2.2c-3-3-3-7.8,0-10.7L12,9.1L4.5,1.5
	l1.4-1.4l9,9l-2.8,2.8c-2.2,2.2-2.2,5.7,0,7.9c1.1,1.1,2.5,1.6,3.9,1.6c1.5,0,2.9-0.6,3.9-1.6l2.8-2.8l9,9L30.3,27.4z"/>
</svg>
