<?xml version="1.0" encoding="utf-8"?>
<!-- Generator: Adobe Illustrator 19.0.0, SVG Export Plug-In . SVG Version: 6.00 Build 0)  -->
<svg version="1.1" id="Layer_1" xmlns="http://www.w3.org/2000/svg" xmlns:xlink="http://www.w3.org/1999/xlink" x="0px" y="0px"
	 width="42.4px" height="60.2px" viewBox="-2266.3 2039.1 42.4 60.2" style="enable-background:new -2266.3 2039.1 42.4 60.2;"
	 xml:space="preserve">
<style type="text/css">
	.st0{opacity:0.19;enable-background:new    ;}
	.st1{fill:#FDCB2E;}
	.st2{fill:#EAB111;}
	.st3{fill:#CC9900;}
</style>
<g>
	<ellipse class="st0" cx="-2245.1" cy="2095" rx="13" ry="4.3"/>
	<path class="st1" d="M-2245.1,2039.1c-11.7,0-21.2,9.5-21.2,20.8c0,11.3,21.2,35.1,21.2,35.1s21.2-23.4,21.2-35.1
		C-2223.9,2048.2-2233.4,2039.1-2245.1,2039.1z"/>
	<circle class="st2" cx="-2245.1" cy="2058.6" r="5.2"/>
	<path class="st3" d="M-2245.1,2054.3c2.6,0,4.8,2.2,5.2,4.8c0-0.4,0-0.4,0-0.4c0-3-2.2-5.2-5.2-5.2s-5.2,2.2-5.2,5.2
		c0,0.4,0,0.4,0,0.4C-2249.9,2056.5-2247.7,2054.3-2245.1,2054.3z"/>
</g>
</svg>
