<?xml version="1.0" encoding="utf-8"?>
<!-- Generator: Adobe Illustrator 19.0.0, SVG Export Plug-In . SVG Version: 6.00 Build 0)  -->
<svg version="1.1" id="Layer_1" xmlns="http://www.w3.org/2000/svg" xmlns:xlink="http://www.w3.org/1999/xlink" x="0px" y="0px"
	 viewBox="-464.1 616.8 247.9 39.8" style="enable-background:new -464.1 616.8 247.9 39.8;" xml:space="preserve">
<style type="text/css">
	.st0{fill:#666666;}
	.st1{fill:#FFC431;}
</style>
<title>Logo</title>
<desc>Created with Sketch.</desc>
<g>
	<path class="st0" d="M-381.8,656.2h-11.3l-7-14.7h-3.3v14.7h-9.7v-39.5h15.6c4.2,0,7.5,1.3,10,3.9c2.3,2.4,3.4,5.3,3.4,8.8
		c0,4.7-2.1,8.2-6.4,10.3L-381.8,656.2z M-393.6,629.5c0-1.1-0.4-2-1.2-2.8c-0.8-0.8-1.8-1.2-3-1.2h-5.5v8h5.5c1.3,0,2.3-0.4,3-1.2
		C-394,631.5-393.6,630.5-393.6,629.5z"/>
	<path class="st0" d="M-341.3,656.2h-10.1l-1.8-5.9h-12.1l-1.9,5.9h-10.1l14.4-39.5h7.5L-341.3,656.2z M-355.9,642.3l-3.3-10.5
		l-3.5,10.5H-355.9z"/>
	<path class="st0" d="M-297.2,656.2h-9.7v-18.9l-5.6,9.8h-6.2l-5.6-9.8v18.9h-9.7v-39.5h9.5l8.9,17.4l8.9-17.4h9.5V656.2z"/>
	<path class="st0" d="M-256.6,642.4c0,4.2-1.5,7.6-4.4,10.3c-2.9,2.6-6.5,3.9-10.7,3.9c-4.2,0-7.7-1.3-10.5-3.9
		c-2.9-2.7-4.4-6.1-4.4-10.3v-25.6h9.7v25.4c0,1.8,0.5,3.2,1.4,4.2c0.9,1,2.2,1.5,3.8,1.5c1.6,0,2.9-0.5,3.9-1.5
		c1-1,1.4-2.4,1.4-4.2v-25.4h9.7V642.4z"/>
	<path class="st0" d="M-216.3,656.2h-9.7v-15.6h-10.3v15.6h-9.7v-39.5h9.7V632h10.3v-15.2h9.7V656.2z"/>
</g>
<g id="XMLID_15_">
	<circle id="XMLID_1_" class="st1" cx="-444.3" cy="636.7" r="19.8"/>
</g>
</svg>
